<?xml version="1.0" encoding="UTF-8"?>
<svg xmlns="http://www.w3.org/2000/svg" xmlns:xlink="http://www.w3.org/1999/xlink" width="2000" height="2000" viewBox="0 0 2000 2000">
<defs>
<clipPath id="clip-0">

</clipPath>
<clipPath id="clip-1">
<path clip-rule="evenodd" d="M 253.59375 391.960938 C 245.140625 404.109375 248.886719 422.019531 261.976562 431.941406 C 275.054688 441.859375 292.53125 440.050781 300.984375 427.898438 C 309.453125 415.738281 305.707031 397.828125 292.628906 387.921875 C 279.539062 377.988281 262.058594 379.800781 253.59375 391.960938 Z M 417.523438 177.011719 L 297.855469 348.898438 C 269.867188 336.671875 238.1875 343.539062 221.464844 367.578125 C 201.507812 396.230469 210.335938 438.398438 241.171875 461.800781 C 272.023438 485.191406 313.1875 480.921875 333.144531 452.28125 C 349.867188 428.238281 346.351562 394.679688 326.5625 370.679688 L 391.628906 277.230469 L 415.90625 295.648438 C 419.515625 298.390625 424.386719 297.878906 426.726562 294.519531 L 438.371094 277.808594 C 440.710938 274.449219 439.667969 269.449219 436.042969 266.71875 L 411.765625 248.300781 L 424.230469 230.429688 L 458.53125 256.441406 C 462.140625 259.179688 467.027344 258.679688 469.367188 255.328125 L 480.996094 238.601562 C 483.335938 235.238281 482.308594 230.25 478.683594 227.488281 L 444.382812 201.480469 L 446.234375 198.789062 C 448.40625 195.691406 447.433594 191.089844 444.101562 188.558594 L 427.515625 175.988281 C 424.183594 173.460938 419.683594 173.921875 417.523438 177.011719 "/>
</clipPath>
<linearGradient id="linear-pattern-0" gradientUnits="userSpaceOnUse" x1="-0.317034" y1="0" x2="1.318009" y2="0" gradientTransform="matrix(204.107, 79.0037, -56.2883, 198.015, 241.774, 284.49)">
<stop offset="0" stop-color="rgb(51.763916%, 69.802856%, 99.606323%)" stop-opacity="1"/>
<stop offset="0.125" stop-color="rgb(51.763916%, 69.802856%, 99.606323%)" stop-opacity="1"/>
<stop offset="0.1875" stop-color="rgb(51.763916%, 69.802856%, 99.606323%)" stop-opacity="1"/>
<stop offset="0.195312" stop-color="rgb(51.724243%, 69.778442%, 99.606323%)" stop-opacity="1"/>
<stop offset="0.199219" stop-color="rgb(51.463318%, 69.625854%, 99.606323%)" stop-opacity="1"/>
<stop offset="0.203125" stop-color="rgb(51.243591%, 69.496155%, 99.606323%)" stop-opacity="1"/>
<stop offset="0.207031" stop-color="rgb(51.022339%, 69.364929%, 99.606323%)" stop-opacity="1"/>
<stop offset="0.210938" stop-color="rgb(50.802612%, 69.235229%, 99.606323%)" stop-opacity="1"/>
<stop offset="0.214844" stop-color="rgb(50.58136%, 69.104004%, 99.606323%)" stop-opacity="1"/>
<stop offset="0.21875" stop-color="rgb(50.361633%, 68.974304%, 99.606323%)" stop-opacity="1"/>
<stop offset="0.222656" stop-color="rgb(50.140381%, 68.843079%, 99.606323%)" stop-opacity="1"/>
<stop offset="0.226562" stop-color="rgb(49.920654%, 68.713379%, 99.606323%)" stop-opacity="1"/>
<stop offset="0.230469" stop-color="rgb(49.699402%, 68.583679%, 99.606323%)" stop-opacity="1"/>
<stop offset="0.234375" stop-color="rgb(49.479675%, 68.453979%, 99.606323%)" stop-opacity="1"/>
<stop offset="0.238281" stop-color="rgb(49.258423%, 68.322754%, 99.606323%)" stop-opacity="1"/>
<stop offset="0.242188" stop-color="rgb(49.038696%, 68.193054%, 99.606323%)" stop-opacity="1"/>
<stop offset="0.246094" stop-color="rgb(48.817444%, 68.061829%, 99.606323%)" stop-opacity="1"/>
<stop offset="0.25" stop-color="rgb(48.597717%, 67.932129%, 99.606323%)" stop-opacity="1"/>
<stop offset="0.253906" stop-color="rgb(48.377991%, 67.802429%, 99.606323%)" stop-opacity="1"/>
<stop offset="0.257812" stop-color="rgb(48.158264%, 67.672729%, 99.606323%)" stop-opacity="1"/>
<stop offset="0.261719" stop-color="rgb(47.937012%, 67.541504%, 99.606323%)" stop-opacity="1"/>
<stop offset="0.265625" stop-color="rgb(47.717285%, 67.411804%, 99.606323%)" stop-opacity="1"/>
<stop offset="0.269531" stop-color="rgb(47.496033%, 67.280579%, 99.606323%)" stop-opacity="1"/>
<stop offset="0.273438" stop-color="rgb(47.276306%, 67.150879%, 99.606323%)" stop-opacity="1"/>
<stop offset="0.277344" stop-color="rgb(47.055054%, 67.019653%, 99.606323%)" stop-opacity="1"/>
<stop offset="0.28125" stop-color="rgb(46.835327%, 66.889954%, 99.606323%)" stop-opacity="1"/>
<stop offset="0.285156" stop-color="rgb(46.614075%, 66.760254%, 99.606323%)" stop-opacity="1"/>
<stop offset="0.289062" stop-color="rgb(46.394348%, 66.630554%, 99.606323%)" stop-opacity="1"/>
<stop offset="0.292969" stop-color="rgb(46.173096%, 66.499329%, 99.606323%)" stop-opacity="1"/>
<stop offset="0.296875" stop-color="rgb(45.953369%, 66.369629%, 99.606323%)" stop-opacity="1"/>
<stop offset="0.300781" stop-color="rgb(45.732117%, 66.238403%, 99.606323%)" stop-opacity="1"/>
<stop offset="0.304688" stop-color="rgb(45.51239%, 66.108704%, 99.606323%)" stop-opacity="1"/>
<stop offset="0.308594" stop-color="rgb(45.291138%, 65.979004%, 99.606323%)" stop-opacity="1"/>
<stop offset="0.3125" stop-color="rgb(45.071411%, 65.849304%, 99.606323%)" stop-opacity="1"/>
<stop offset="0.316406" stop-color="rgb(44.850159%, 65.718079%, 99.606323%)" stop-opacity="1"/>
<stop offset="0.320312" stop-color="rgb(44.630432%, 65.588379%, 99.606323%)" stop-opacity="1"/>
<stop offset="0.324219" stop-color="rgb(44.410706%, 65.457153%, 99.606323%)" stop-opacity="1"/>
<stop offset="0.328125" stop-color="rgb(44.190979%, 65.327454%, 99.606323%)" stop-opacity="1"/>
<stop offset="0.332031" stop-color="rgb(43.969727%, 65.197754%, 99.606323%)" stop-opacity="1"/>
<stop offset="0.335938" stop-color="rgb(43.75%, 65.068054%, 99.606323%)" stop-opacity="1"/>
<stop offset="0.339844" stop-color="rgb(43.528748%, 64.936829%, 99.606323%)" stop-opacity="1"/>
<stop offset="0.34375" stop-color="rgb(43.309021%, 64.807129%, 99.606323%)" stop-opacity="1"/>
<stop offset="0.347656" stop-color="rgb(43.087769%, 64.675903%, 99.606323%)" stop-opacity="1"/>
<stop offset="0.351562" stop-color="rgb(42.868042%, 64.546204%, 99.606323%)" stop-opacity="1"/>
<stop offset="0.355469" stop-color="rgb(42.64679%, 64.414978%, 99.606323%)" stop-opacity="1"/>
<stop offset="0.359375" stop-color="rgb(42.427063%, 64.285278%, 99.606323%)" stop-opacity="1"/>
<stop offset="0.363281" stop-color="rgb(42.205811%, 64.155579%, 99.606323%)" stop-opacity="1"/>
<stop offset="0.367188" stop-color="rgb(41.986084%, 64.025879%, 99.606323%)" stop-opacity="1"/>
<stop offset="0.371094" stop-color="rgb(41.764832%, 63.894653%, 99.606323%)" stop-opacity="1"/>
<stop offset="0.375" stop-color="rgb(41.545105%, 63.764954%, 99.606323%)" stop-opacity="1"/>
<stop offset="0.378906" stop-color="rgb(41.323853%, 63.633728%, 99.606323%)" stop-opacity="1"/>
<stop offset="0.382812" stop-color="rgb(41.104126%, 63.504028%, 99.606323%)" stop-opacity="1"/>
<stop offset="0.386719" stop-color="rgb(40.882874%, 63.374329%, 99.606323%)" stop-opacity="1"/>
<stop offset="0.390625" stop-color="rgb(40.663147%, 63.244629%, 99.606323%)" stop-opacity="1"/>
<stop offset="0.394531" stop-color="rgb(40.441895%, 63.113403%, 99.606323%)" stop-opacity="1"/>
<stop offset="0.398438" stop-color="rgb(40.222168%, 62.983704%, 99.606323%)" stop-opacity="1"/>
<stop offset="0.402344" stop-color="rgb(40.002441%, 62.852478%, 99.606323%)" stop-opacity="1"/>
<stop offset="0.40625" stop-color="rgb(39.782715%, 62.722778%, 99.606323%)" stop-opacity="1"/>
<stop offset="0.410156" stop-color="rgb(39.561462%, 62.591553%, 99.606323%)" stop-opacity="1"/>
<stop offset="0.414062" stop-color="rgb(39.341736%, 62.461853%, 99.606323%)" stop-opacity="1"/>
<stop offset="0.417969" stop-color="rgb(39.120483%, 62.332153%, 99.606323%)" stop-opacity="1"/>
<stop offset="0.421875" stop-color="rgb(38.900757%, 62.202454%, 99.606323%)" stop-opacity="1"/>
<stop offset="0.425781" stop-color="rgb(38.679504%, 62.071228%, 99.606323%)" stop-opacity="1"/>
<stop offset="0.429688" stop-color="rgb(38.459778%, 61.941528%, 99.606323%)" stop-opacity="1"/>
<stop offset="0.433594" stop-color="rgb(38.238525%, 61.810303%, 99.606323%)" stop-opacity="1"/>
<stop offset="0.4375" stop-color="rgb(38.018799%, 61.680603%, 99.606323%)" stop-opacity="1"/>
<stop offset="0.441406" stop-color="rgb(37.797546%, 61.550903%, 99.606323%)" stop-opacity="1"/>
<stop offset="0.445312" stop-color="rgb(37.57782%, 61.421204%, 99.606323%)" stop-opacity="1"/>
<stop offset="0.449219" stop-color="rgb(37.356567%, 61.289978%, 99.606323%)" stop-opacity="1"/>
<stop offset="0.453125" stop-color="rgb(37.136841%, 61.160278%, 99.606323%)" stop-opacity="1"/>
<stop offset="0.457031" stop-color="rgb(36.915588%, 61.029053%, 99.606323%)" stop-opacity="1"/>
<stop offset="0.460938" stop-color="rgb(36.695862%, 60.899353%, 99.606323%)" stop-opacity="1"/>
<stop offset="0.464844" stop-color="rgb(36.474609%, 60.768127%, 99.606323%)" stop-opacity="1"/>
<stop offset="0.46875" stop-color="rgb(36.254883%, 60.638428%, 99.606323%)" stop-opacity="1"/>
<stop offset="0.472656" stop-color="rgb(36.03363%, 60.508728%, 99.606323%)" stop-opacity="1"/>
<stop offset="0.476562" stop-color="rgb(35.813904%, 60.379028%, 99.606323%)" stop-opacity="1"/>
<stop offset="0.480469" stop-color="rgb(35.594177%, 60.247803%, 99.606323%)" stop-opacity="1"/>
<stop offset="0.484375" stop-color="rgb(35.374451%, 60.118103%, 99.606323%)" stop-opacity="1"/>
<stop offset="0.488281" stop-color="rgb(35.153198%, 59.986877%, 99.606323%)" stop-opacity="1"/>
<stop offset="0.492188" stop-color="rgb(34.933472%, 59.857178%, 99.606323%)" stop-opacity="1"/>
<stop offset="0.496094" stop-color="rgb(34.712219%, 59.727478%, 99.606323%)" stop-opacity="1"/>
<stop offset="0.5" stop-color="rgb(34.492493%, 59.597778%, 99.606323%)" stop-opacity="1"/>
<stop offset="0.503906" stop-color="rgb(34.27124%, 59.466553%, 99.606323%)" stop-opacity="1"/>
<stop offset="0.507812" stop-color="rgb(34.051514%, 59.336853%, 99.606323%)" stop-opacity="1"/>
<stop offset="0.511719" stop-color="rgb(33.830261%, 59.205627%, 99.606323%)" stop-opacity="1"/>
<stop offset="0.515625" stop-color="rgb(33.610535%, 59.075928%, 99.606323%)" stop-opacity="1"/>
<stop offset="0.519531" stop-color="rgb(33.389282%, 58.944702%, 99.606323%)" stop-opacity="1"/>
<stop offset="0.523438" stop-color="rgb(33.169556%, 58.815002%, 99.606323%)" stop-opacity="1"/>
<stop offset="0.527344" stop-color="rgb(32.948303%, 58.685303%, 99.606323%)" stop-opacity="1"/>
<stop offset="0.53125" stop-color="rgb(32.728577%, 58.555603%, 99.606323%)" stop-opacity="1"/>
<stop offset="0.535156" stop-color="rgb(32.507324%, 58.424377%, 99.606323%)" stop-opacity="1"/>
<stop offset="0.539062" stop-color="rgb(32.287598%, 58.294678%, 99.606323%)" stop-opacity="1"/>
<stop offset="0.542969" stop-color="rgb(32.066345%, 58.163452%, 99.606323%)" stop-opacity="1"/>
<stop offset="0.546875" stop-color="rgb(31.846619%, 58.033752%, 99.606323%)" stop-opacity="1"/>
<stop offset="0.550781" stop-color="rgb(31.626892%, 57.904053%, 99.606323%)" stop-opacity="1"/>
<stop offset="0.554688" stop-color="rgb(31.407166%, 57.774353%, 99.606323%)" stop-opacity="1"/>
<stop offset="0.558594" stop-color="rgb(31.185913%, 57.643127%, 99.606323%)" stop-opacity="1"/>
<stop offset="0.5625" stop-color="rgb(30.966187%, 57.513428%, 99.606323%)" stop-opacity="1"/>
<stop offset="0.566406" stop-color="rgb(30.744934%, 57.382202%, 99.606323%)" stop-opacity="1"/>
<stop offset="0.570312" stop-color="rgb(30.525208%, 57.252502%, 99.606323%)" stop-opacity="1"/>
<stop offset="0.574219" stop-color="rgb(30.303955%, 57.121277%, 99.606323%)" stop-opacity="1"/>
<stop offset="0.578125" stop-color="rgb(30.084229%, 56.991577%, 99.606323%)" stop-opacity="1"/>
<stop offset="0.582031" stop-color="rgb(29.862976%, 56.861877%, 99.606323%)" stop-opacity="1"/>
<stop offset="0.585938" stop-color="rgb(29.64325%, 56.732178%, 99.606323%)" stop-opacity="1"/>
<stop offset="0.589844" stop-color="rgb(29.421997%, 56.600952%, 99.606323%)" stop-opacity="1"/>
<stop offset="0.59375" stop-color="rgb(29.202271%, 56.471252%, 99.606323%)" stop-opacity="1"/>
<stop offset="0.597656" stop-color="rgb(28.981018%, 56.340027%, 99.606323%)" stop-opacity="1"/>
<stop offset="0.601562" stop-color="rgb(28.761292%, 56.210327%, 99.606323%)" stop-opacity="1"/>
<stop offset="0.605469" stop-color="rgb(28.540039%, 56.080627%, 99.606323%)" stop-opacity="1"/>
<stop offset="0.609375" stop-color="rgb(28.320312%, 55.950928%, 99.606323%)" stop-opacity="1"/>
<stop offset="0.613281" stop-color="rgb(28.09906%, 55.819702%, 99.606323%)" stop-opacity="1"/>
<stop offset="0.617188" stop-color="rgb(27.879333%, 55.690002%, 99.606323%)" stop-opacity="1"/>
<stop offset="0.621094" stop-color="rgb(27.658081%, 55.558777%, 99.606323%)" stop-opacity="1"/>
<stop offset="0.625" stop-color="rgb(27.438354%, 55.429077%, 99.606323%)" stop-opacity="1"/>
<stop offset="0.628906" stop-color="rgb(27.218628%, 55.297852%, 99.606323%)" stop-opacity="1"/>
<stop offset="0.632813" stop-color="rgb(26.998901%, 55.168152%, 99.606323%)" stop-opacity="1"/>
<stop offset="0.636719" stop-color="rgb(26.777649%, 55.038452%, 99.606323%)" stop-opacity="1"/>
<stop offset="0.640625" stop-color="rgb(26.557922%, 54.908752%, 99.606323%)" stop-opacity="1"/>
<stop offset="0.644531" stop-color="rgb(26.33667%, 54.777527%, 99.606323%)" stop-opacity="1"/>
<stop offset="0.648438" stop-color="rgb(26.116943%, 54.647827%, 99.606323%)" stop-opacity="1"/>
<stop offset="0.652344" stop-color="rgb(25.895691%, 54.516602%, 99.606323%)" stop-opacity="1"/>
<stop offset="0.65625" stop-color="rgb(25.675964%, 54.386902%, 99.606323%)" stop-opacity="1"/>
<stop offset="0.660156" stop-color="rgb(25.454712%, 54.257202%, 99.606323%)" stop-opacity="1"/>
<stop offset="0.664062" stop-color="rgb(25.234985%, 54.127502%, 99.606323%)" stop-opacity="1"/>
<stop offset="0.667969" stop-color="rgb(25.013733%, 53.996277%, 99.606323%)" stop-opacity="1"/>
<stop offset="0.671875" stop-color="rgb(24.794006%, 53.866577%, 99.606323%)" stop-opacity="1"/>
<stop offset="0.675781" stop-color="rgb(24.572754%, 53.735352%, 99.606323%)" stop-opacity="1"/>
<stop offset="0.679688" stop-color="rgb(24.353027%, 53.605652%, 99.606323%)" stop-opacity="1"/>
<stop offset="0.683594" stop-color="rgb(24.131775%, 53.475952%, 99.606323%)" stop-opacity="1"/>
<stop offset="0.6875" stop-color="rgb(23.912048%, 53.346252%, 99.606323%)" stop-opacity="1"/>
<stop offset="0.691406" stop-color="rgb(23.690796%, 53.215027%, 99.606323%)" stop-opacity="1"/>
<stop offset="0.695312" stop-color="rgb(23.471069%, 53.085327%, 99.606323%)" stop-opacity="1"/>
<stop offset="0.699219" stop-color="rgb(23.251343%, 52.954102%, 99.606323%)" stop-opacity="1"/>
<stop offset="0.703125" stop-color="rgb(23.031616%, 52.824402%, 99.606323%)" stop-opacity="1"/>
<stop offset="0.707031" stop-color="rgb(22.810364%, 52.693176%, 99.606323%)" stop-opacity="1"/>
<stop offset="0.710938" stop-color="rgb(22.590637%, 52.563477%, 99.606323%)" stop-opacity="1"/>
<stop offset="0.714844" stop-color="rgb(22.369385%, 52.433777%, 99.606323%)" stop-opacity="1"/>
<stop offset="0.71875" stop-color="rgb(22.149658%, 52.304077%, 99.606323%)" stop-opacity="1"/>
<stop offset="0.722656" stop-color="rgb(21.928406%, 52.172852%, 99.606323%)" stop-opacity="1"/>
<stop offset="0.726562" stop-color="rgb(21.708679%, 52.043152%, 99.606323%)" stop-opacity="1"/>
<stop offset="0.730469" stop-color="rgb(21.487427%, 51.911926%, 99.606323%)" stop-opacity="1"/>
<stop offset="0.734375" stop-color="rgb(21.2677%, 51.782227%, 99.606323%)" stop-opacity="1"/>
<stop offset="0.738281" stop-color="rgb(21.046448%, 51.652527%, 99.606323%)" stop-opacity="1"/>
<stop offset="0.742188" stop-color="rgb(20.826721%, 51.522827%, 99.606323%)" stop-opacity="1"/>
<stop offset="0.746094" stop-color="rgb(20.605469%, 51.391602%, 99.606323%)" stop-opacity="1"/>
<stop offset="0.75" stop-color="rgb(20.385742%, 51.261902%, 99.606323%)" stop-opacity="1"/>
<stop offset="0.753906" stop-color="rgb(20.16449%, 51.130676%, 99.606323%)" stop-opacity="1"/>
<stop offset="0.757812" stop-color="rgb(19.944763%, 51.000977%, 99.606323%)" stop-opacity="1"/>
<stop offset="0.761719" stop-color="rgb(19.723511%, 50.869751%, 99.606323%)" stop-opacity="1"/>
<stop offset="0.765625" stop-color="rgb(19.503784%, 50.740051%, 99.606323%)" stop-opacity="1"/>
<stop offset="0.769531" stop-color="rgb(19.282532%, 50.610352%, 99.606323%)" stop-opacity="1"/>
<stop offset="0.773437" stop-color="rgb(19.062805%, 50.480652%, 99.606323%)" stop-opacity="1"/>
<stop offset="0.777344" stop-color="rgb(18.843079%, 50.349426%, 99.606323%)" stop-opacity="1"/>
<stop offset="0.78125" stop-color="rgb(18.623352%, 50.219727%, 99.606323%)" stop-opacity="1"/>
<stop offset="0.785156" stop-color="rgb(18.4021%, 50.088501%, 99.606323%)" stop-opacity="1"/>
<stop offset="0.789062" stop-color="rgb(18.182373%, 49.958801%, 99.606323%)" stop-opacity="1"/>
<stop offset="0.792969" stop-color="rgb(17.961121%, 49.829102%, 99.606323%)" stop-opacity="1"/>
<stop offset="0.796875" stop-color="rgb(17.741394%, 49.699402%, 99.606323%)" stop-opacity="1"/>
<stop offset="0.800781" stop-color="rgb(17.520142%, 49.568176%, 99.606323%)" stop-opacity="1"/>
<stop offset="0.804687" stop-color="rgb(17.300415%, 49.438477%, 99.606323%)" stop-opacity="1"/>
<stop offset="0.8125" stop-color="rgb(17.277527%, 49.424744%, 99.606323%)" stop-opacity="1"/>
<stop offset="0.875" stop-color="rgb(17.254639%, 49.411011%, 99.606323%)" stop-opacity="1"/>
<stop offset="1" stop-color="rgb(17.254639%, 49.411011%, 99.606323%)" stop-opacity="1"/>
</linearGradient>
<clipPath id="clip-2">
<path clip-rule="nonzero" d="M 1285 697 L 1359 697 L 1359 790 L 1285 790 Z M 1285 697 "/>
</clipPath>
<clipPath id="clip-3">
<path clip-rule="evenodd" d="M 1289.300781 704.25 C 1295.738281 703.089844 1302.121094 702 1308.488281 700.898438 C 1314.800781 699.808594 1321.121094 698.710938 1327.359375 697.621094 C 1329.878906 697.171875 1332.578125 698.96875 1333.421875 701.539062 C 1337.539062 713.910156 1341.660156 726.339844 1345.789062 738.648438 C 1349.839844 750.949219 1353.96875 763.320312 1358.019531 775.550781 C 1358.859375 778.191406 1357.640625 780.710938 1355.191406 781.21875 C 1349.011719 782.570312 1342.820312 783.859375 1336.578125 785.210938 C 1330.328125 786.570312 1324.019531 787.921875 1317.699219 789.269531 C 1315.191406 789.789062 1312.421875 788.050781 1311.519531 785.410156 C 1307.328125 772.851562 1303.148438 760.289062 1298.898438 747.730469 C 1294.710938 735.171875 1290.460938 722.539062 1286.269531 709.921875 C 1285.371094 707.210938 1286.71875 704.699219 1289.300781 704.25 "/>
</clipPath>
<linearGradient id="linear-pattern-1" gradientUnits="userSpaceOnUse" x1="-0.00857587" y1="0" x2="1.007941" y2="0" gradientTransform="matrix(72.2959, 0, 0, 72.2959, 1285.99, 743.46)">
<stop offset="0" stop-color="rgb(38.430786%, 79.214478%, 92.155457%)" stop-opacity="1"/>
<stop offset="0.015625" stop-color="rgb(38.525391%, 79.234314%, 92.10968%)" stop-opacity="1"/>
<stop offset="0.0234375" stop-color="rgb(38.722229%, 79.277039%, 92.01355%)" stop-opacity="1"/>
<stop offset="0.03125" stop-color="rgb(38.928223%, 79.319763%, 91.914368%)" stop-opacity="1"/>
<stop offset="0.0390625" stop-color="rgb(39.13269%, 79.364014%, 91.815186%)" stop-opacity="1"/>
<stop offset="0.046875" stop-color="rgb(39.338684%, 79.406738%, 91.714478%)" stop-opacity="1"/>
<stop offset="0.0546875" stop-color="rgb(39.544678%, 79.450989%, 91.615295%)" stop-opacity="1"/>
<stop offset="0.0625" stop-color="rgb(39.749146%, 79.493713%, 91.516113%)" stop-opacity="1"/>
<stop offset="0.0703125" stop-color="rgb(39.955139%, 79.537964%, 91.415405%)" stop-opacity="1"/>
<stop offset="0.078125" stop-color="rgb(40.161133%, 79.582214%, 91.316223%)" stop-opacity="1"/>
<stop offset="0.0859375" stop-color="rgb(40.365601%, 79.624939%, 91.217041%)" stop-opacity="1"/>
<stop offset="0.09375" stop-color="rgb(40.571594%, 79.669189%, 91.117859%)" stop-opacity="1"/>
<stop offset="0.101562" stop-color="rgb(40.777588%, 79.711914%, 91.017151%)" stop-opacity="1"/>
<stop offset="0.109375" stop-color="rgb(40.983582%, 79.756165%, 90.917969%)" stop-opacity="1"/>
<stop offset="0.117188" stop-color="rgb(41.188049%, 79.798889%, 90.818787%)" stop-opacity="1"/>
<stop offset="0.125" stop-color="rgb(41.394043%, 79.84314%, 90.718079%)" stop-opacity="1"/>
<stop offset="0.132812" stop-color="rgb(41.600037%, 79.88739%, 90.618896%)" stop-opacity="1"/>
<stop offset="0.140625" stop-color="rgb(41.804504%, 79.930115%, 90.519714%)" stop-opacity="1"/>
<stop offset="0.148438" stop-color="rgb(42.010498%, 79.974365%, 90.419006%)" stop-opacity="1"/>
<stop offset="0.15625" stop-color="rgb(42.216492%, 80.01709%, 90.319824%)" stop-opacity="1"/>
<stop offset="0.164062" stop-color="rgb(42.422485%, 80.06134%, 90.220642%)" stop-opacity="1"/>
<stop offset="0.171875" stop-color="rgb(42.626953%, 80.105591%, 90.119934%)" stop-opacity="1"/>
<stop offset="0.179688" stop-color="rgb(42.832947%, 80.148315%, 90.020752%)" stop-opacity="1"/>
<stop offset="0.1875" stop-color="rgb(43.03894%, 80.192566%, 89.92157%)" stop-opacity="1"/>
<stop offset="0.195312" stop-color="rgb(43.243408%, 80.235291%, 89.820862%)" stop-opacity="1"/>
<stop offset="0.203125" stop-color="rgb(43.449402%, 80.279541%, 89.72168%)" stop-opacity="1"/>
<stop offset="0.210938" stop-color="rgb(43.655396%, 80.322266%, 89.622498%)" stop-opacity="1"/>
<stop offset="0.21875" stop-color="rgb(43.861389%, 80.366516%, 89.523315%)" stop-opacity="1"/>
<stop offset="0.226562" stop-color="rgb(44.065857%, 80.410767%, 89.422607%)" stop-opacity="1"/>
<stop offset="0.234375" stop-color="rgb(44.271851%, 80.453491%, 89.323425%)" stop-opacity="1"/>
<stop offset="0.242188" stop-color="rgb(44.477844%, 80.497742%, 89.224243%)" stop-opacity="1"/>
<stop offset="0.25" stop-color="rgb(44.682312%, 80.540466%, 89.123535%)" stop-opacity="1"/>
<stop offset="0.257812" stop-color="rgb(44.888306%, 80.584717%, 89.024353%)" stop-opacity="1"/>
<stop offset="0.265625" stop-color="rgb(45.094299%, 80.627441%, 88.925171%)" stop-opacity="1"/>
<stop offset="0.273438" stop-color="rgb(45.298767%, 80.671692%, 88.824463%)" stop-opacity="1"/>
<stop offset="0.28125" stop-color="rgb(45.504761%, 80.715942%, 88.725281%)" stop-opacity="1"/>
<stop offset="0.289062" stop-color="rgb(45.710754%, 80.758667%, 88.626099%)" stop-opacity="1"/>
<stop offset="0.296875" stop-color="rgb(45.916748%, 80.802917%, 88.525391%)" stop-opacity="1"/>
<stop offset="0.304688" stop-color="rgb(46.121216%, 80.845642%, 88.426208%)" stop-opacity="1"/>
<stop offset="0.3125" stop-color="rgb(46.327209%, 80.889893%, 88.327026%)" stop-opacity="1"/>
<stop offset="0.320312" stop-color="rgb(46.533203%, 80.932617%, 88.226318%)" stop-opacity="1"/>
<stop offset="0.328125" stop-color="rgb(46.737671%, 80.976868%, 88.127136%)" stop-opacity="1"/>
<stop offset="0.335938" stop-color="rgb(46.943665%, 81.021118%, 88.027954%)" stop-opacity="1"/>
<stop offset="0.34375" stop-color="rgb(47.149658%, 81.063843%, 87.928772%)" stop-opacity="1"/>
<stop offset="0.351562" stop-color="rgb(47.355652%, 81.108093%, 87.828064%)" stop-opacity="1"/>
<stop offset="0.359375" stop-color="rgb(47.56012%, 81.150818%, 87.728882%)" stop-opacity="1"/>
<stop offset="0.367188" stop-color="rgb(47.766113%, 81.195068%, 87.6297%)" stop-opacity="1"/>
<stop offset="0.375" stop-color="rgb(47.972107%, 81.237793%, 87.528992%)" stop-opacity="1"/>
<stop offset="0.382812" stop-color="rgb(48.176575%, 81.282043%, 87.42981%)" stop-opacity="1"/>
<stop offset="0.390625" stop-color="rgb(48.382568%, 81.326294%, 87.330627%)" stop-opacity="1"/>
<stop offset="0.398438" stop-color="rgb(48.588562%, 81.369019%, 87.229919%)" stop-opacity="1"/>
<stop offset="0.40625" stop-color="rgb(48.79303%, 81.413269%, 87.130737%)" stop-opacity="1"/>
<stop offset="0.414062" stop-color="rgb(48.999023%, 81.455994%, 87.031555%)" stop-opacity="1"/>
<stop offset="0.421875" stop-color="rgb(49.205017%, 81.500244%, 86.930847%)" stop-opacity="1"/>
<stop offset="0.429688" stop-color="rgb(49.411011%, 81.542969%, 86.831665%)" stop-opacity="1"/>
<stop offset="0.4375" stop-color="rgb(49.615479%, 81.587219%, 86.732483%)" stop-opacity="1"/>
<stop offset="0.445312" stop-color="rgb(49.821472%, 81.63147%, 86.631775%)" stop-opacity="1"/>
<stop offset="0.453125" stop-color="rgb(50.027466%, 81.674194%, 86.532593%)" stop-opacity="1"/>
<stop offset="0.460938" stop-color="rgb(50.231934%, 81.718445%, 86.433411%)" stop-opacity="1"/>
<stop offset="0.46875" stop-color="rgb(50.437927%, 81.761169%, 86.334229%)" stop-opacity="1"/>
<stop offset="0.476562" stop-color="rgb(50.643921%, 81.80542%, 86.233521%)" stop-opacity="1"/>
<stop offset="0.484375" stop-color="rgb(50.849915%, 81.848145%, 86.134338%)" stop-opacity="1"/>
<stop offset="0.492187" stop-color="rgb(51.054382%, 81.892395%, 86.035156%)" stop-opacity="1"/>
<stop offset="0.5" stop-color="rgb(51.260376%, 81.936646%, 85.934448%)" stop-opacity="1"/>
<stop offset="0.507812" stop-color="rgb(51.46637%, 81.97937%, 85.835266%)" stop-opacity="1"/>
<stop offset="0.515625" stop-color="rgb(51.670837%, 82.023621%, 85.736084%)" stop-opacity="1"/>
<stop offset="0.523438" stop-color="rgb(51.876831%, 82.066345%, 85.635376%)" stop-opacity="1"/>
<stop offset="0.53125" stop-color="rgb(52.082825%, 82.110596%, 85.536194%)" stop-opacity="1"/>
<stop offset="0.539062" stop-color="rgb(52.287292%, 82.15332%, 85.437012%)" stop-opacity="1"/>
<stop offset="0.546875" stop-color="rgb(52.493286%, 82.197571%, 85.336304%)" stop-opacity="1"/>
<stop offset="0.554688" stop-color="rgb(52.69928%, 82.241821%, 85.237122%)" stop-opacity="1"/>
<stop offset="0.5625" stop-color="rgb(52.905273%, 82.284546%, 85.137939%)" stop-opacity="1"/>
<stop offset="0.570312" stop-color="rgb(53.109741%, 82.328796%, 85.037231%)" stop-opacity="1"/>
<stop offset="0.578125" stop-color="rgb(53.315735%, 82.371521%, 84.938049%)" stop-opacity="1"/>
<stop offset="0.585938" stop-color="rgb(53.521729%, 82.415771%, 84.838867%)" stop-opacity="1"/>
<stop offset="0.59375" stop-color="rgb(53.726196%, 82.460022%, 84.739685%)" stop-opacity="1"/>
<stop offset="0.601562" stop-color="rgb(53.93219%, 82.502747%, 84.638977%)" stop-opacity="1"/>
<stop offset="0.609375" stop-color="rgb(54.138184%, 82.546997%, 84.539795%)" stop-opacity="1"/>
<stop offset="0.617188" stop-color="rgb(54.344177%, 82.589722%, 84.440613%)" stop-opacity="1"/>
<stop offset="0.625" stop-color="rgb(54.548645%, 82.633972%, 84.339905%)" stop-opacity="1"/>
<stop offset="0.632812" stop-color="rgb(54.754639%, 82.676697%, 84.240723%)" stop-opacity="1"/>
<stop offset="0.640625" stop-color="rgb(54.960632%, 82.720947%, 84.141541%)" stop-opacity="1"/>
<stop offset="0.648438" stop-color="rgb(55.1651%, 82.765198%, 84.040833%)" stop-opacity="1"/>
<stop offset="0.65625" stop-color="rgb(55.371094%, 82.807922%, 83.94165%)" stop-opacity="1"/>
<stop offset="0.664062" stop-color="rgb(55.577087%, 82.852173%, 83.842468%)" stop-opacity="1"/>
<stop offset="0.671875" stop-color="rgb(55.781555%, 82.894897%, 83.74176%)" stop-opacity="1"/>
<stop offset="0.679688" stop-color="rgb(55.987549%, 82.939148%, 83.642578%)" stop-opacity="1"/>
<stop offset="0.6875" stop-color="rgb(56.193542%, 82.981873%, 83.543396%)" stop-opacity="1"/>
<stop offset="0.695312" stop-color="rgb(56.399536%, 83.026123%, 83.442688%)" stop-opacity="1"/>
<stop offset="0.703125" stop-color="rgb(56.604004%, 83.070374%, 83.343506%)" stop-opacity="1"/>
<stop offset="0.710938" stop-color="rgb(56.809998%, 83.113098%, 83.244324%)" stop-opacity="1"/>
<stop offset="0.71875" stop-color="rgb(57.015991%, 83.157349%, 83.145142%)" stop-opacity="1"/>
<stop offset="0.726562" stop-color="rgb(57.220459%, 83.200073%, 83.044434%)" stop-opacity="1"/>
<stop offset="0.734375" stop-color="rgb(57.426453%, 83.244324%, 82.945251%)" stop-opacity="1"/>
<stop offset="0.742188" stop-color="rgb(57.632446%, 83.287048%, 82.846069%)" stop-opacity="1"/>
<stop offset="0.75" stop-color="rgb(57.83844%, 83.331299%, 82.745361%)" stop-opacity="1"/>
<stop offset="0.757812" stop-color="rgb(58.042908%, 83.375549%, 82.646179%)" stop-opacity="1"/>
<stop offset="0.765625" stop-color="rgb(58.248901%, 83.418274%, 82.546997%)" stop-opacity="1"/>
<stop offset="0.773438" stop-color="rgb(58.454895%, 83.462524%, 82.446289%)" stop-opacity="1"/>
<stop offset="0.78125" stop-color="rgb(58.659363%, 83.505249%, 82.347107%)" stop-opacity="1"/>
<stop offset="0.789062" stop-color="rgb(58.865356%, 83.5495%, 82.247925%)" stop-opacity="1"/>
<stop offset="0.796875" stop-color="rgb(59.07135%, 83.592224%, 82.147217%)" stop-opacity="1"/>
<stop offset="0.804688" stop-color="rgb(59.275818%, 83.636475%, 82.048035%)" stop-opacity="1"/>
<stop offset="0.8125" stop-color="rgb(59.481812%, 83.680725%, 81.948853%)" stop-opacity="1"/>
<stop offset="0.820312" stop-color="rgb(59.687805%, 83.72345%, 81.848145%)" stop-opacity="1"/>
<stop offset="0.828125" stop-color="rgb(59.893799%, 83.7677%, 81.748962%)" stop-opacity="1"/>
<stop offset="0.835938" stop-color="rgb(60.098267%, 83.810425%, 81.64978%)" stop-opacity="1"/>
<stop offset="0.84375" stop-color="rgb(60.30426%, 83.854675%, 81.550598%)" stop-opacity="1"/>
<stop offset="0.851562" stop-color="rgb(60.510254%, 83.8974%, 81.44989%)" stop-opacity="1"/>
<stop offset="0.859375" stop-color="rgb(60.714722%, 83.94165%, 81.350708%)" stop-opacity="1"/>
<stop offset="0.867188" stop-color="rgb(60.920715%, 83.985901%, 81.251526%)" stop-opacity="1"/>
<stop offset="0.875" stop-color="rgb(61.126709%, 84.028625%, 81.150818%)" stop-opacity="1"/>
<stop offset="0.882812" stop-color="rgb(61.332703%, 84.072876%, 81.051636%)" stop-opacity="1"/>
<stop offset="0.890625" stop-color="rgb(61.53717%, 84.115601%, 80.952454%)" stop-opacity="1"/>
<stop offset="0.898438" stop-color="rgb(61.743164%, 84.159851%, 80.851746%)" stop-opacity="1"/>
<stop offset="0.90625" stop-color="rgb(61.949158%, 84.202576%, 80.752563%)" stop-opacity="1"/>
<stop offset="0.914062" stop-color="rgb(62.153625%, 84.246826%, 80.653381%)" stop-opacity="1"/>
<stop offset="0.921875" stop-color="rgb(62.359619%, 84.291077%, 80.552673%)" stop-opacity="1"/>
<stop offset="0.929688" stop-color="rgb(62.565613%, 84.333801%, 80.453491%)" stop-opacity="1"/>
<stop offset="0.9375" stop-color="rgb(62.770081%, 84.378052%, 80.354309%)" stop-opacity="1"/>
<stop offset="0.945312" stop-color="rgb(62.976074%, 84.420776%, 80.253601%)" stop-opacity="1"/>
<stop offset="0.953125" stop-color="rgb(63.182068%, 84.465027%, 80.154419%)" stop-opacity="1"/>
<stop offset="0.960938" stop-color="rgb(63.388062%, 84.507751%, 80.055237%)" stop-opacity="1"/>
<stop offset="0.96875" stop-color="rgb(63.592529%, 84.552002%, 79.956055%)" stop-opacity="1"/>
<stop offset="0.976562" stop-color="rgb(63.798523%, 84.596252%, 79.855347%)" stop-opacity="1"/>
<stop offset="0.984375" stop-color="rgb(64.004517%, 84.638977%, 79.756165%)" stop-opacity="1"/>
<stop offset="1" stop-color="rgb(64.208984%, 84.683228%, 79.656982%)" stop-opacity="1"/>
</linearGradient>
</defs>

<path fill-rule="evenodd" fill="rgb(87.5%, 90.234375%, 100%)" fill-opacity="1" d="M 999.898438 1931.558594 C 1505.929688 1931.558594 1918.839844 1904.851562 1918.839844 1871.941406 C 1918.839844 1839.039062 1505.929688 1812.328125 999.898438 1812.328125 C 493.867188 1812.328125 81.15625 1839.039062 81.15625 1871.941406 C 81.15625 1904.851562 493.867188 1931.558594 999.898438 1931.558594 "/>
<path fill-rule="nonzero" fill="rgb(83.59375%, 94.139099%, 100%)" fill-opacity="1" d="M 898.980469 70.558594 C 1146.980469 52.921875 1373.929688 146.359375 1525.949219 306.261719 C 1767.371094 415.871094 1938.46875 642.320312 1953.609375 914.691406 C 1976.078125 1319.429688 1645.71875 1672.28125 1215.710938 1702.789062 C 1097.820312 1711.191406 984.71875 1694.398438 882.152344 1657.398438 C 876.699219 1657.929688 871.246094 1658.359375 865.699219 1658.78125 C 435.6875 1689.289062 68.949219 1385.980469 46.386719 981.351562 C 33.597656 750.230469 135.886719 536 305.953125 389.078125 C 439.355469 211.109375 652.761719 88 898.980469 70.558594 "/>
<path fill-rule="evenodd" fill="rgb(100%, 100%, 100%)" fill-opacity="1" d="M 993.160156 203.28125 C 760.363281 207.058594 575.300781 399.859375 579.054688 631.058594 C 582.8125 862.261719 774.046875 1048.949219 1006.839844 1045.171875 C 1238.039062 1041.410156 1424.699219 848.578125 1420.941406 617.378906 C 1417.191406 386.179688 1224.359375 199.519531 993.160156 203.28125 "/>
<path fill-rule="evenodd" fill="rgb(38.426208%, 79.6875%, 92.576599%)" fill-opacity="1" d="M 1105.050781 644.238281 C 1184.378906 678.46875 1242.890625 752.679688 1254.511719 842.109375 C 1082.121094 844.980469 912.902344 847.691406 745.492188 850.410156 C 757.105469 762.628906 813.210938 687.371094 890.730469 649.671875 C 919.6875 673.191406 956.941406 687.070312 997.210938 686.160156 C 1037.628906 685.261719 1075.480469 669.421875 1105.050781 644.238281 "/>
<path fill-rule="evenodd" fill="rgb(38.426208%, 79.6875%, 92.576599%)" fill-opacity="1" d="M 997.210938 351.351562 C 1078.199219 348.179688 1146.21875 412.128906 1146.21875 494.621094 C 1146.21875 576.671875 1078.5 644.988281 997.210938 646.949219 C 916.519531 649.058594 850.765625 585.121094 850.765625 504.128906 C 850.765625 422.828125 916.21875 354.511719 997.210938 351.351562 "/>
<path fill-rule="evenodd" fill="rgb(17.259216%, 49.414062%, 99.609375%)" fill-opacity="1" d="M 625.863281 1291.949219 L 1374.148438 1291.949219 C 1389.648438 1291.949219 1402.339844 1304.640625 1402.339844 1320.148438 L 1402.339844 1853.179688 C 1402.339844 1868.691406 1389.648438 1881.378906 1374.148438 1881.378906 L 625.863281 1881.378906 C 610.347656 1881.378906 597.660156 1868.691406 597.660156 1853.179688 L 597.660156 1320.148438 C 597.660156 1304.640625 610.347656 1291.949219 625.863281 1291.949219 "/>
<path fill-rule="evenodd" fill="rgb(100%, 100%, 100%)" fill-opacity="1" d="M 685.929688 1440.761719 L 1314.070312 1440.761719 C 1316.140625 1440.761719 1317.820312 1442.441406 1317.820312 1444.511719 L 1317.820312 1515.5 C 1317.820312 1517.558594 1316.140625 1519.25 1314.070312 1519.25 L 685.929688 1519.25 C 683.863281 1519.25 682.175781 1517.558594 682.175781 1515.5 L 682.175781 1444.511719 C 682.175781 1442.441406 683.863281 1440.761719 685.929688 1440.761719 "/>
<path fill-rule="evenodd" fill="rgb(100%, 100%, 100%)" fill-opacity="1" d="M 685.929688 1579.53125 L 1314.070312 1579.53125 C 1316.140625 1579.53125 1317.820312 1581.21875 1317.820312 1583.28125 L 1317.820312 1654.269531 C 1317.820312 1656.328125 1316.140625 1658.019531 1314.070312 1658.019531 L 685.929688 1658.019531 C 683.863281 1658.019531 682.175781 1656.328125 682.175781 1654.269531 L 682.175781 1583.28125 C 682.175781 1581.21875 683.863281 1579.53125 685.929688 1579.53125 "/>
<path fill-rule="evenodd" fill="rgb(17.259216%, 49.414062%, 99.609375%)" fill-opacity="1" d="M 748.847656 1630.058594 C 755.0625 1630.058594 760.132812 1624.988281 760.132812 1618.78125 C 760.132812 1612.570312 755.0625 1607.5 748.847656 1607.5 C 742.636719 1607.5 737.5625 1612.570312 737.5625 1618.78125 C 737.5625 1624.988281 742.636719 1630.058594 748.847656 1630.058594 "/>
<path fill-rule="evenodd" fill="rgb(17.259216%, 49.414062%, 99.609375%)" fill-opacity="1" d="M 796.996094 1630.058594 C 803.210938 1630.058594 808.273438 1624.988281 808.273438 1618.78125 C 808.273438 1612.570312 803.210938 1607.5 796.996094 1607.5 C 790.785156 1607.5 785.710938 1612.570312 785.710938 1618.78125 C 785.710938 1624.988281 790.785156 1630.058594 796.996094 1630.058594 "/>
<path fill-rule="evenodd" fill="rgb(17.259216%, 49.414062%, 99.609375%)" fill-opacity="1" d="M 850.304688 1630.058594 C 856.519531 1630.058594 861.589844 1624.988281 861.589844 1618.78125 C 861.589844 1612.570312 856.519531 1607.5 850.304688 1607.5 C 844.089844 1607.5 839.03125 1612.570312 839.03125 1618.78125 C 839.03125 1624.988281 844.089844 1630.058594 850.304688 1630.058594 "/>
<path fill-rule="evenodd" fill="rgb(17.259216%, 49.414062%, 99.609375%)" fill-opacity="1" d="M 898.453125 1630.058594 C 904.667969 1630.058594 909.742188 1624.988281 909.742188 1618.78125 C 909.742188 1612.570312 904.667969 1607.5 898.453125 1607.5 C 892.242188 1607.5 887.167969 1612.570312 887.167969 1618.78125 C 887.167969 1624.988281 892.242188 1630.058594 898.453125 1630.058594 "/>
<path fill-rule="evenodd" fill="rgb(17.259216%, 49.414062%, 99.609375%)" fill-opacity="1" d="M 949.71875 1630.058594 C 955.929688 1630.058594 961.003906 1624.988281 961.003906 1618.78125 C 961.003906 1612.570312 955.929688 1607.5 949.71875 1607.5 C 943.503906 1607.5 938.429688 1612.570312 938.429688 1618.78125 C 938.429688 1624.988281 943.503906 1630.058594 949.71875 1630.058594 "/>
<path fill-rule="evenodd" fill="rgb(17.259216%, 49.414062%, 99.609375%)" fill-opacity="1" d="M 997.867188 1630.058594 C 1004.078125 1630.058594 1009.140625 1624.988281 1009.140625 1618.78125 C 1009.140625 1612.570312 1004.078125 1607.5 997.867188 1607.5 C 991.652344 1607.5 986.582031 1612.570312 986.582031 1618.78125 C 986.582031 1624.988281 991.652344 1630.058594 997.867188 1630.058594 "/>
<path fill-rule="evenodd" fill="rgb(17.259216%, 49.414062%, 99.609375%)" fill-opacity="1" d="M 1051.171875 1630.058594 C 1057.390625 1630.058594 1062.460938 1624.988281 1062.460938 1618.78125 C 1062.460938 1612.570312 1057.390625 1607.5 1051.171875 1607.5 C 1044.960938 1607.5 1039.898438 1612.570312 1039.898438 1618.78125 C 1039.898438 1624.988281 1044.960938 1630.058594 1051.171875 1630.058594 "/>
<path fill-rule="evenodd" fill="rgb(17.259216%, 49.414062%, 99.609375%)" fill-opacity="1" d="M 1099.320312 1630.058594 C 1105.539062 1630.058594 1110.609375 1624.988281 1110.609375 1618.78125 C 1110.609375 1612.570312 1105.539062 1607.5 1099.320312 1607.5 C 1093.109375 1607.5 1088.039062 1612.570312 1088.039062 1618.78125 C 1088.039062 1624.988281 1093.109375 1630.058594 1099.320312 1630.058594 "/>
<path fill-rule="evenodd" fill="rgb(17.259216%, 49.414062%, 99.609375%)" fill-opacity="1" d="M 1149.699219 1630.058594 C 1155.910156 1630.058594 1160.980469 1624.988281 1160.980469 1618.78125 C 1160.980469 1612.570312 1155.910156 1607.5 1149.699219 1607.5 C 1143.480469 1607.5 1138.410156 1612.570312 1138.410156 1618.78125 C 1138.410156 1624.988281 1143.480469 1630.058594 1149.699219 1630.058594 "/>
<path fill-rule="evenodd" fill="rgb(17.259216%, 49.414062%, 99.609375%)" fill-opacity="1" d="M 1197.851562 1630.058594 C 1204.058594 1630.058594 1209.121094 1624.988281 1209.121094 1618.78125 C 1209.121094 1612.570312 1204.058594 1607.5 1197.851562 1607.5 C 1191.621094 1607.5 1186.558594 1612.570312 1186.558594 1618.78125 C 1186.558594 1624.988281 1191.621094 1630.058594 1197.851562 1630.058594 "/>
<path fill-rule="evenodd" fill="rgb(17.259216%, 49.414062%, 99.609375%)" fill-opacity="1" d="M 1251.148438 1630.058594 C 1257.371094 1630.058594 1262.441406 1624.988281 1262.441406 1618.78125 C 1262.441406 1612.570312 1257.371094 1607.5 1251.148438 1607.5 C 1244.941406 1607.5 1239.878906 1612.570312 1239.878906 1618.78125 C 1239.878906 1624.988281 1244.941406 1630.058594 1251.148438 1630.058594 "/>
<path fill-rule="evenodd" fill="rgb(17.259216%, 49.414062%, 99.609375%)" fill-opacity="1" d="M 875.503906 1491.300781 C 881.714844 1491.300781 886.777344 1486.21875 886.777344 1480.011719 C 886.777344 1473.800781 881.714844 1468.71875 875.503906 1468.71875 C 869.277344 1468.71875 864.214844 1473.800781 864.214844 1480.011719 C 864.214844 1486.21875 869.277344 1491.300781 875.503906 1491.300781 "/>
<path fill-rule="evenodd" fill="rgb(17.259216%, 49.414062%, 99.609375%)" fill-opacity="1" d="M 923.640625 1491.300781 C 929.855469 1491.300781 934.925781 1486.21875 934.925781 1480.011719 C 934.925781 1473.800781 929.855469 1468.71875 923.640625 1468.71875 C 917.425781 1468.71875 912.355469 1473.800781 912.355469 1480.011719 C 912.355469 1486.21875 917.425781 1491.300781 923.640625 1491.300781 "/>
<path fill-rule="evenodd" fill="rgb(17.259216%, 49.414062%, 99.609375%)" fill-opacity="1" d="M 976.957031 1491.300781 C 983.171875 1491.300781 988.234375 1486.21875 988.234375 1480.011719 C 988.234375 1473.800781 983.171875 1468.71875 976.957031 1468.71875 C 970.746094 1468.71875 965.671875 1473.800781 965.671875 1480.011719 C 965.671875 1486.21875 970.746094 1491.300781 976.957031 1491.300781 "/>
<path fill-rule="evenodd" fill="rgb(17.259216%, 49.414062%, 99.609375%)" fill-opacity="1" d="M 1025.101562 1491.300781 C 1031.308594 1491.300781 1036.378906 1486.21875 1036.378906 1480.011719 C 1036.378906 1473.800781 1031.308594 1468.71875 1025.101562 1468.71875 C 1018.878906 1468.71875 1013.808594 1473.800781 1013.808594 1480.011719 C 1013.808594 1486.21875 1018.878906 1491.300781 1025.101562 1491.300781 "/>
<path fill-rule="evenodd" fill="rgb(17.259216%, 49.414062%, 99.609375%)" fill-opacity="1" d="M 1076.371094 1491.300781 C 1082.578125 1491.300781 1087.648438 1486.21875 1087.648438 1480.011719 C 1087.648438 1473.800781 1082.578125 1468.71875 1076.371094 1468.71875 C 1070.148438 1468.71875 1065.089844 1473.800781 1065.089844 1480.011719 C 1065.089844 1486.21875 1070.148438 1491.300781 1076.371094 1491.300781 "/>
<path fill-rule="evenodd" fill="rgb(17.259216%, 49.414062%, 99.609375%)" fill-opacity="1" d="M 1124.511719 1491.300781 C 1130.71875 1491.300781 1135.800781 1486.21875 1135.800781 1480.011719 C 1135.800781 1473.800781 1130.71875 1468.71875 1124.511719 1468.71875 C 1118.300781 1468.71875 1113.21875 1473.800781 1113.21875 1480.011719 C 1113.21875 1486.21875 1118.300781 1491.300781 1124.511719 1491.300781 "/>
<path fill-rule="evenodd" fill="rgb(99.609375%, 70.896912%, 25.87738%)" fill-opacity="1" d="M 685.929688 1728.359375 L 1314.070312 1728.359375 C 1316.140625 1728.359375 1317.820312 1730.050781 1317.820312 1732.121094 L 1317.820312 1803.101562 C 1317.820312 1805.171875 1316.140625 1806.859375 1314.070312 1806.859375 L 685.929688 1806.859375 C 683.863281 1806.859375 682.175781 1805.171875 682.175781 1803.101562 L 682.175781 1732.121094 C 682.175781 1730.050781 683.863281 1728.359375 685.929688 1728.359375 "/>
<path fill-rule="evenodd" fill="rgb(51.756287%, 69.726562%, 99.609375%)" fill-opacity="1" d="M 1000.011719 1396.519531 C 1065.371094 1396.519531 1118.691406 1343.199219 1118.691406 1277.828125 C 1118.691406 1212.460938 1065.371094 1159.140625 1000.011719 1159.140625 C 934.628906 1159.140625 881.3125 1212.460938 881.3125 1277.828125 C 881.3125 1343.199219 934.628906 1396.519531 1000.011719 1396.519531 "/>
<path fill-rule="evenodd" fill="rgb(100%, 100%, 100%)" fill-opacity="1" d="M 937.859375 1322.460938 L 978.015625 1274.800781 L 944.203125 1232.359375 C 941.03125 1228.25 938.65625 1224.710938 937.066406 1221.75 C 935.472656 1218.800781 934.675781 1215.96875 934.675781 1213.21875 C 934.675781 1210.441406 936.1875 1207.949219 939.273438 1205.710938 C 942.328125 1203.5 946.046875 1202.378906 950.476562 1202.378906 C 955.539062 1202.378906 959.460938 1203.609375 962.261719 1206.019531 C 965.101562 1208.429688 969 1212.941406 973.964844 1219.511719 L 1000.921875 1254.988281 L 1029.71875 1219.511719 C 1032.058594 1216.519531 1034.101562 1213.96875 1035.78125 1211.859375 C 1037.449219 1209.71875 1039.03125 1207.949219 1040.589844 1206.558594 C 1042.171875 1205.160156 1043.890625 1204.121094 1045.800781 1203.429688 C 1047.730469 1202.71875 1049.949219 1202.378906 1052.488281 1202.378906 C 1057.050781 1202.378906 1060.769531 1203.5 1063.699219 1205.710938 C 1066.578125 1207.949219 1068.039062 1210.570312 1068.039062 1213.628906 C 1068.039062 1218.078125 1064.910156 1224.140625 1058.601562 1231.769531 L 1023.199219 1274.800781 L 1061.308594 1322.460938 C 1064.738281 1326.640625 1067.199219 1330.109375 1068.761719 1332.851562 C 1070.300781 1335.609375 1071.101562 1338.199219 1071.101562 1340.640625 C 1071.101562 1342.980469 1070.378906 1345.089844 1069.011719 1347.019531 C 1067.628906 1348.941406 1065.660156 1350.460938 1063.148438 1351.589844 C 1060.609375 1352.699219 1057.761719 1353.28125 1054.550781 1353.28125 C 1051.109375 1353.28125 1048.230469 1352.699219 1045.851562 1351.550781 C 1043.511719 1350.398438 1041.589844 1348.941406 1040.128906 1347.238281 C 1038.660156 1345.5 1035.910156 1342.128906 1031.890625 1337.171875 L 1000.289062 1296.789062 L 966.742188 1338.359375 C 964.140625 1341.691406 962.308594 1344.011719 961.183594 1345.320312 C 960.089844 1346.660156 958.757812 1347.949219 957.203125 1349.210938 C 955.65625 1350.460938 953.828125 1351.441406 951.6875 1352.191406 C 949.5625 1352.898438 947.09375 1353.28125 944.203125 1353.28125 C 939.820312 1353.28125 936.136719 1352.191406 933.261719 1349.980469 C 930.375 1347.808594 928.914062 1344.609375 928.914062 1340.429688 C 928.914062 1335.539062 931.886719 1329.519531 937.859375 1322.460938 "/>
<g clip-path="url(#clip-0)">
<g clip-path="url(#clip-1)">
<path fill-rule="nonzero" fill="url(#linear-pattern-0)" d="M 229.441406 75.183594 L 121.675781 454.289062 L 455.402344 583.464844 L 563.167969 204.359375 Z M 229.441406 75.183594 "/>
</g>
</g>
<path fill-rule="evenodd" fill="rgb(51.756287%, 69.726562%, 99.609375%)" fill-opacity="1" d="M 1504.398438 182.488281 C 1521.328125 165.25 1546.558594 162.308594 1560.460938 175.960938 L 1618.910156 233.359375 C 1632.808594 247.011719 1630.328125 272.289062 1613.390625 289.53125 C 1596.410156 306.828125 1571.230469 309.71875 1557.328125 296.070312 L 1498.878906 238.660156 C 1484.980469 225.019531 1487.410156 199.789062 1504.398438 182.488281 Z M 1484.429688 162.878906 C 1514.128906 132.640625 1558.480469 127.429688 1582.890625 151.410156 L 1632.75 200.371094 C 1657.171875 224.351562 1652.75 268.789062 1623.058594 299.019531 C 1593.308594 329.320312 1548.960938 334.53125 1524.539062 310.558594 L 1474.679688 261.589844 C 1450.269531 237.609375 1454.679688 193.171875 1484.429688 162.878906 "/>
<path fill-rule="evenodd" fill="rgb(17.259216%, 49.414062%, 99.609375%)" fill-opacity="1" d="M 1514.089844 295.199219 L 1617.210938 190.191406 C 1627.148438 180.070312 1642.371094 178.710938 1650.988281 187.171875 L 1745.53125 280.011719 C 1754.148438 288.480469 1753.058594 303.71875 1743.121094 313.851562 L 1640 418.851562 C 1630.011719 429.019531 1614.839844 430.339844 1606.21875 421.871094 L 1511.679688 329.03125 C 1503.058594 320.570312 1504.101562 305.371094 1514.089844 295.199219 "/>
<path fill-rule="evenodd" fill="rgb(2.352905%, 26.268005%, 63.867188%)" fill-opacity="1" d="M 1589.710938 266.289062 C 1601.179688 254.609375 1619.949219 254.46875 1631.628906 265.941406 C 1640.46875 274.628906 1642.761719 287.5 1638.328125 298.289062 L 1668.671875 314.648438 L 1654.078125 329.511719 L 1639.460938 344.398438 L 1622.550781 314.359375 C 1611.839844 318.988281 1598.929688 316.929688 1590.089844 308.238281 C 1578.410156 296.769531 1578.199219 278.011719 1589.710938 266.289062 "/>
<path fill-rule="evenodd" fill="rgb(98.826599%, 80.076599%, 67.771912%)" fill-opacity="1" d="M 1387.519531 834.488281 L 1349.328125 850.851562 C 1344.238281 845.761719 1339.148438 840.671875 1334.058594 835.589844 L 1309.460938 817.289062 C 1302.949219 811.558594 1298.570312 803.960938 1298.898438 793.269531 L 1294.128906 732.53125 L 1363.628906 794.558594 L 1366.78125 811.558594 L 1387.519531 834.488281 "/>
<path fill-rule="evenodd" fill="rgb(2.745056%, 10.984802%, 24.31488%)" fill-opacity="1" d="M 1639.820312 1813.410156 L 1629 1783.519531 L 1681.691406 1761.171875 L 1693.800781 1792.929688 C 1705.328125 1802.199219 1711.578125 1820.878906 1715.570312 1837.179688 L 1566.648438 1886.449219 C 1536.511719 1850.640625 1615.410156 1837.761719 1639.820312 1813.410156 "/>
<path fill-rule="evenodd" fill="rgb(10.205078%, 21.556091%, 38.818359%)" fill-opacity="1" d="M 1705.71875 1835.238281 L 1703.199219 1803.550781 L 1759.878906 1795.949219 L 1763.171875 1829.769531 C 1771.871094 1841.75 1772.960938 1861.390625 1772.511719 1878.140625 L 1615.929688 1886.449219 C 1596.28125 1843.941406 1675.761719 1852.308594 1705.71875 1835.238281 "/>
<path fill-rule="evenodd" fill="rgb(89.451599%, 30.589294%, 46.655273%)" fill-opacity="1" d="M 1626.75 957.058594 L 1556.859375 848.019531 L 1502.050781 913.011719 L 1375.089844 810.210938 L 1340.179688 852.199219 L 1459.539062 982.121094 C 1473 996.160156 1482.789062 1003.179688 1512.160156 997.058594 L 1626.75 957.058594 "/>
<path fill-rule="evenodd" fill="rgb(8.227539%, 28.24707%, 61.521912%)" fill-opacity="1" d="M 1635.570312 1152.421875 L 1712.988281 1142.628906 L 1603.949219 1480.730469 L 1707.519531 1782.878906 L 1629 1798.140625 L 1485.039062 1496.179688 C 1476.28125 1482.921875 1476.28125 1466.550781 1485.039062 1445.230469 L 1563.558594 1197.121094 L 1635.570312 1152.421875 "/>
<path fill-rule="evenodd" fill="rgb(29.417419%, 46.263123%, 72.851562%)" fill-opacity="1" d="M 1629 1112.101562 L 1729.351562 1190.621094 L 1772.960938 1807.929688 L 1696.628906 1816.691406 L 1563.558594 1197.121094 L 1629 1112.101562 "/>
<path fill-rule="evenodd" fill="rgb(68.554688%, 58.789062%, 77.734375%)" fill-opacity="1" d="M 1667.199219 805.511719 L 1605.621094 807.441406 C 1577.730469 820.839844 1550.480469 848.140625 1546.101562 866.691406 C 1534.121094 895.039062 1557.761719 1086.589844 1563.558594 1197.121094 C 1617.019531 1215.671875 1683.558594 1202.601562 1729.351562 1190.621094 C 1729.738281 1078.289062 1747.898438 903.730469 1730.449219 853.558594 C 1717.371094 821.929688 1687.941406 808.851562 1667.199219 805.511719 "/>
<path fill-rule="evenodd" fill="rgb(10.205078%, 21.556091%, 38.818359%)" fill-opacity="1" d="M 1282.859375 698.710938 C 1290.78125 697.359375 1298.640625 696.011719 1306.429688 694.648438 C 1314.160156 693.359375 1321.890625 692.011719 1329.488281 690.71875 C 1332.519531 690.210938 1335.871094 692.398438 1336.898438 695.621094 C 1341.988281 710.878906 1347.070312 726.148438 1352.101562 741.421875 C 1357.121094 756.621094 1362.210938 771.820312 1367.238281 787.019531 C 1368.269531 790.171875 1366.71875 793.269531 1363.761719 793.910156 C 1356.289062 795.589844 1348.75 797.199219 1341.148438 798.871094 C 1333.550781 800.609375 1325.820312 802.28125 1318.089844 803.960938 C 1315 804.671875 1311.648438 802.609375 1310.550781 799.320312 C 1305.339844 783.800781 1300.121094 768.210938 1294.898438 752.621094 C 1289.621094 736.96875 1284.398438 721.320312 1279.121094 705.671875 C 1278.03125 702.378906 1279.699219 699.230469 1282.859375 698.710938 "/>
<g clip-path="url(#clip-2)">
<g clip-path="url(#clip-3)">
<path fill-rule="nonzero" fill="url(#linear-pattern-1)" d="M 1285.371094 697.171875 L 1285.371094 789.789062 L 1358.859375 789.789062 L 1358.859375 697.171875 Z M 1285.371094 697.171875 "/>
</g>
</g>
<path fill-rule="evenodd" fill="rgb(100%, 100%, 100%)" fill-opacity="1" d="M 1337.539062 787.921875 C 1339.671875 787.46875 1341.988281 788.949219 1342.761719 791.210938 C 1343.53125 793.519531 1342.371094 795.710938 1340.25 796.160156 C 1338.121094 796.679688 1335.800781 795.199219 1335.03125 792.878906 C 1334.261719 790.628906 1335.421875 788.441406 1337.539062 787.921875 "/>
<path fill-rule="evenodd" fill="rgb(98.826599%, 80.076599%, 67.771912%)" fill-opacity="1" d="M 1332.390625 813.878906 L 1351.199219 819.101562 L 1363.558594 808.148438 C 1369.550781 803.378906 1371.679688 797.128906 1368.648438 789.921875 C 1363.441406 769.890625 1358.480469 740 1350.101562 752.878906 L 1352.871094 796.359375 L 1332.390625 813.878906 "/>
<path fill-rule="evenodd" fill="rgb(98.046875%, 73.242188%, 59.959412%)" fill-opacity="1" d="M 1659.851562 692.140625 L 1602.851562 770.011719 C 1603.75 782.511719 1604.648438 795.011719 1605.621094 807.441406 C 1609.289062 848.851562 1649.738281 814.390625 1667.199219 805.511719 L 1659.851562 692.140625 "/>
<path fill-rule="evenodd" fill="rgb(98.826599%, 80.076599%, 67.771912%)" fill-opacity="1" d="M 1678.660156 663.800781 L 1552.421875 657.550781 C 1556.351562 702.449219 1523.171875 810.078125 1609.738281 790.429688 C 1673.570312 776.710938 1674.148438 713.53125 1678.660156 663.800781 "/>
<path fill-rule="evenodd" fill="rgb(10.205078%, 8.616638%, 30.979919%)" fill-opacity="1" d="M 1653.03125 677.96875 C 1621.398438 658.328125 1567.941406 697.621094 1551.898438 685.960938 C 1536.308594 670.371094 1475.25 689.949219 1483.949219 667.089844 C 1492.640625 651.820312 1507.199219 648.921875 1518.859375 639.769531 C 1513.378906 632.171875 1502.5 627.789062 1490.519531 625.609375 C 1518.859375 598.359375 1543.910156 609.238281 1570.128906 621.289062 C 1617.019531 596.171875 1650.839844 600.550781 1680.269531 622.378906 C 1707.519531 641.960938 1685.75 685.25 1682.460938 713.980469 C 1686.839844 720.550781 1696.628906 712.878906 1703.199219 715.589844 C 1701.53125 722.671875 1697.730469 726.539062 1693.351562 729.238281 C 1694.441406 736.328125 1699.210938 732.53125 1703.398438 737.808594 C 1692.25 746.699219 1674.28125 749.398438 1663.910156 747.789062 C 1664.941406 720.160156 1667.070312 691.429688 1653.03125 677.96875 "/>
<path fill-rule="evenodd" fill="rgb(100%, 100%, 100%)" fill-opacity="1" d="M 1605.121094 766.761719 C 1591.648438 768.160156 1581.910156 773.121094 1566.191406 765.539062 C 1580.601562 790.71875 1597.070312 774.808594 1605.121094 766.761719 "/>
<path fill-rule="evenodd" fill="rgb(98.826599%, 80.076599%, 67.771912%)" fill-opacity="1" d="M 1675.890625 1158.460938 L 1660.121094 1170.140625 C 1648.980469 1180.199219 1622.398438 1191.449219 1626.53125 1200.519531 C 1629.71875 1206.25 1644.371094 1193.230469 1652.980469 1196.761719 C 1665.878906 1210.921875 1630.089844 1250.851562 1641.269531 1261.53125 C 1657.578125 1277.730469 1687.671875 1274.359375 1696.550781 1254.109375 C 1701.820312 1243.609375 1695.441406 1208.109375 1695.929688 1175.96875 L 1675.890625 1158.460938 "/>
<path fill-rule="evenodd" fill="rgb(90.234375%, 41.967773%, 54.492188%)" fill-opacity="1" d="M 1643.171875 908.109375 C 1623.53125 857.929688 1708.871094 824.308594 1732.769531 861.738281 L 1756.339844 1006.210938 C 1760.980469 1023.730469 1757.691406 1037.898438 1753.121094 1054.320312 L 1699.921875 1187.328125 L 1656.25 1169.878906 L 1692.25 1038.988281 L 1643.171875 908.109375 "/>
<path fill-rule="evenodd" fill="rgb(98.826599%, 80.076599%, 67.771912%)" fill-opacity="1" d="M 807.085938 837.339844 L 785.886719 805.578125 L 818.714844 781.191406 L 837.160156 753.558594 C 840.976562 748.359375 846.226562 746.238281 851.792969 745.679688 C 886.433594 742.859375 939.644531 732.480469 941.519531 743.050781 C 944.210938 751.550781 894.9375 756.488281 871.675781 763.179688 C 871.675781 771 871.675781 778.75 871.675781 786.570312 C 868.988281 793.390625 864.234375 797.070312 858.859375 799.640625 L 839.910156 806.578125 L 807.085938 837.339844 "/>
<path fill-rule="evenodd" fill="rgb(2.745056%, 10.984802%, 24.31488%)" fill-opacity="1" d="M 274.21875 1822.230469 L 284.660156 1793.210938 L 233.511719 1771.578125 L 221.820312 1802.410156 C 210.5625 1811.410156 204.5 1829.480469 200.683594 1845.300781 L 345.1875 1893.199219 C 374.449219 1858.371094 297.851562 1845.859375 274.21875 1822.230469 "/>
<path fill-rule="evenodd" fill="rgb(2.745056%, 10.984802%, 24.31488%)" fill-opacity="1" d="M 597.738281 1843.488281 L 600.242188 1812.71875 L 545.152344 1805.28125 L 541.964844 1838.109375 C 533.523438 1849.738281 532.460938 1868.808594 532.898438 1885.070312 L 684.902344 1893.199219 C 703.976562 1851.871094 626.816406 1860.058594 597.738281 1843.488281 "/>
<path fill-rule="evenodd" fill="rgb(10.205078%, 21.556091%, 38.818359%)" fill-opacity="1" d="M 500.695312 1047.808594 L 563.160156 1168.488281 L 628.816406 1503.078125 L 609.746094 1824.980469 L 534.648438 1823.789062 L 513.390625 1510.519531 L 483.0625 1352.949219 L 435.039062 1511.589844 L 288.597656 1810.96875 L 216.941406 1780.519531 L 334.433594 1485.070312 L 402.214844 1162.179688 L 500.695312 1047.808594 "/>
<path fill-rule="evenodd" fill="rgb(8.616638%, 71.679688%, 61.914062%)" fill-opacity="1" d="M 501.820312 935.449219 L 553.09375 811.710938 L 641.386719 892.679688 L 791.203125 792.820312 L 822.527344 833.648438 L 688.96875 959.769531 C 673.898438 973.410156 662.957031 980.21875 630.003906 974.28125 L 501.820312 935.449219 "/>
<path fill-rule="evenodd" fill="rgb(8.616638%, 71.679688%, 61.914062%)" fill-opacity="1" d="M 462.554688 788.320312 L 522.328125 790.199219 C 549.40625 803.199219 575.855469 829.710938 580.105469 847.71875 C 591.738281 875.230469 568.789062 1061.191406 563.160156 1168.488281 C 511.261719 1186.5 446.671875 1173.808594 402.214844 1162.179688 C 401.839844 1053.128906 384.203125 883.679688 401.148438 834.96875 C 413.84375 804.269531 442.417969 791.570312 462.554688 788.320312 "/>
<path fill-rule="evenodd" fill="rgb(98.826599%, 80.076599%, 67.771912%)" fill-opacity="1" d="M 414.4375 1121.378906 L 432.605469 1124.109375 C 446.277344 1127.511719 473.074219 1125.019531 473.621094 1134.320312 C 473.5 1140.460938 455.757812 1136.140625 450.167969 1142.890625 C 445.855469 1160.199219 492.824219 1177.398438 488.265625 1191.128906 C 481.945312 1211.671875 455.636719 1222.121094 439.472656 1209.238281 C 430.417969 1202.921875 420.210938 1170.898438 405.628906 1144.53125 L 414.4375 1121.378906 "/>
<path fill-rule="nonzero" fill="rgb(8.616638%, 71.679688%, 61.914062%)" fill-opacity="1" d="M 410.027344 927.320312 C 465.054688 872.230469 466.117188 856.351562 416.46875 811.710938 L 282.972656 939.140625 C 239.578125 986.601562 263.902344 1014.109375 282.972656 1038.308594 L 404.402344 1159.609375 L 442.855469 1123.21875 L 335.871094 991.910156 C 360.632812 970.398438 385.332031 948.828125 410.027344 927.320312 "/>
<path fill-rule="evenodd" fill="rgb(89.84375%, 59.959412%, 47.851562%)" fill-opacity="1" d="M 460.398438 722.421875 L 525.429688 739.550781 C 525.058594 759.921875 524.683594 780.578125 523.984375 800.960938 C 520.289062 836.609375 465.480469 803.660156 460.886719 799.96875 L 460.398438 722.421875 "/>
<path fill-rule="evenodd" fill="rgb(93.75%, 67.771912%, 55.271912%)" fill-opacity="1" d="M 446.519531 626.738281 L 596.992188 621.121094 C 588.121094 670.910156 592.464844 758.371094 570.078125 770.210938 C 556.457031 782.628906 493.921875 779.949219 473.40625 766.890625 C 454.089844 757.5 450.03125 678.25 446.519531 626.738281 "/>
<path fill-rule="evenodd" fill="rgb(10.205078%, 8.616638%, 30.979919%)" fill-opacity="1" d="M 476.109375 634.71875 C 489.726562 625.128906 579.410156 646.828125 594.535156 638.660156 C 636.269531 620.921875 610.882812 624.261719 598.875 588.011719 C 594.089844 565.078125 575.332031 577.488281 502.828125 573.648438 C 486.816406 573.050781 474.695312 590.851562 468.9375 597.351562 C 442.335938 604.089844 424.210938 604.609375 422.957031 624.421875 C 421.394531 648.191406 443.679688 682.480469 453.886719 711.660156 C 478.71875 685.960938 453.117188 648.820312 476.109375 634.71875 "/>
<path fill-rule="evenodd" fill="rgb(93.75%, 67.771912%, 55.271912%)" fill-opacity="1" d="M 477.511719 684.261719 L 478.472656 659.921875 C 476.980469 651.421875 459.46875 646.570312 453.101562 656.75 C 447.328125 670.890625 469.34375 688.761719 477.511719 684.261719 "/>
<path fill-rule="evenodd" fill="rgb(10.205078%, 8.616638%, 30.979919%)" fill-opacity="1" d="M 534.699219 784.28125 C 579.097656 791.738281 601.527344 758.109375 593.46875 712.519531 C 585.019531 707.691406 541.699219 761.660156 478.941406 721.898438 C 478.027344 725.859375 477.113281 729.820312 476.195312 733.78125 C 471.894531 767.449219 503.886719 781.949219 534.699219 784.28125 "/>
<path fill-rule="evenodd" fill="rgb(11.767578%, 9.812927%, 30.589294%)" fill-opacity="1" d="M 479.453125 625.390625 L 468.539062 643.199219 L 479.5 743.410156 C 489.464844 745.980469 499.128906 748.261719 509.09375 750.828125 C 488.613281 719.660156 484.78125 675.210938 479.453125 625.390625 "/>
<path fill-rule="evenodd" fill="rgb(100%, 100%, 100%)" fill-opacity="1" d="M 570.671875 750.980469 C 557.351562 755.441406 547.761719 757.410156 531.796875 755.878906 C 549.339844 767.890625 560 762.429688 570.671875 750.980469 "/>
</svg>
