<svg width="21" height="34" viewBox="0 0 21 34" fill="none" xmlns="http://www.w3.org/2000/svg">
<path d="M11.2634 0.947754C12.1892 0.947754 12.8625 1.70522 12.8625 2.54686V3.3885C15.0508 3.64099 16.9865 4.39846 18.6698 5.49259C19.259 5.82924 19.764 6.41839 19.764 7.34419C19.764 8.52248 18.8382 9.44828 17.6599 9.44828C17.3232 9.44828 16.9024 9.36411 16.5657 9.11162C15.2191 8.35415 13.9567 7.76501 12.6942 7.42835V14.6664C18.4173 16.0972 20.8581 18.3696 20.8581 22.4095C20.8581 26.5335 17.5757 29.3109 12.8625 29.7317V32.0041C12.8625 32.9299 12.1051 33.6032 11.2634 33.6032C10.3376 33.6032 9.58016 32.8458 9.58016 32.0041V29.6476C6.7186 29.3109 4.10951 28.3009 1.8371 26.7018C1.16379 26.281 0.827148 25.6919 0.827148 24.8502C0.827148 23.6719 1.75295 22.7461 2.93124 22.7461C3.35206 22.7461 3.85704 22.9145 4.19369 23.167C5.96113 24.4294 7.72855 25.3552 9.74847 25.6919V18.2855C4.27784 16.8547 1.66878 14.7506 1.66878 10.5424C1.66878 6.50255 4.867 3.72515 9.58016 3.30434V2.54686C9.58016 1.62106 10.3376 0.947754 11.2634 0.947754ZM9.74847 13.8248V7.17586C7.30773 7.42835 6.12945 8.69081 6.12945 10.3741C6.12945 11.889 6.80275 12.8148 9.74847 13.8248ZM12.6942 19.0429V25.9444C15.1349 25.6919 16.3974 24.5136 16.3974 22.662C16.3974 20.9787 15.6399 19.9687 12.6942 19.0429Z" fill="#4B8CA9"/>
</svg>
